<svg width="24" height="24" viewBox="0 0 24 24" fill="none" xmlns="http://www.w3.org/2000/svg">
<g clip-path="url(#clip0_15360_1345)">
<path d="M4.0381 9.98166L4.11044 10.7051L3.02532 10.8498C2.4097 7.32239 3.80371 3.83119 6.69159 1.74776C9.81023 -0.501338 13.8527 -0.597552 17.0523 1.56039C20.0277 3.56642 21.6149 7.29852 20.9646 10.8498L19.8874 10.6255L19.9518 9.98166H16.7687L16.5156 11.8633C16.36 11.4386 16.2363 11.0017 16.0591 10.5828C15.9267 10.2718 15.6286 10.0337 15.6778 9.65613C15.8782 8.54062 15.5881 7.40848 15.5397 6.29152L12.5729 6.43693V8.02844L11.5211 8.01108L11.4155 7.91993V6.43693L8.51748 6.24957C8.42055 6.32408 8.2462 7.83095 8.23246 8.06534C8.20063 8.6173 8.33663 9.67276 8.19918 10.13C8.15433 10.2797 7.92501 10.5691 7.83675 10.7803C7.67977 11.1543 7.53219 11.5312 7.47287 11.9349L7.14734 9.98239H4.03665L4.0381 9.98166ZM11.4169 1.22835C9.81384 1.78972 9.15192 3.59247 8.73957 5.09789L11.4169 5.35181V1.22835ZM12.5744 1.22835V5.35181L15.251 5.13406C14.8546 3.62068 14.1825 1.77886 12.5744 1.22835ZM8.95732 1.8078C8.81264 1.68699 7.12057 2.85386 6.89776 3.03905C6.57005 3.31106 5.9906 3.86447 5.7374 4.19362C5.6817 4.26596 5.59706 4.2855 5.62961 4.41065L7.64939 4.84036C7.92935 3.77187 8.3265 2.72003 8.95732 1.8078ZM18.3617 4.41065C18.4087 4.34843 18.1006 3.97877 18.0376 3.90426C17.2788 3.00939 16.1727 2.28236 15.1078 1.80708L15.9571 3.59753L16.3376 4.91776L18.3624 4.40992L18.3617 4.41065ZM4.0381 8.89654H7.07644L7.36436 6.00505L5.01254 5.36845C4.31879 6.3957 4.11044 7.67759 4.03882 8.89654H4.0381ZM19.9532 8.89654C19.9069 7.66818 19.619 6.42391 18.9795 5.36845C18.2134 5.62815 17.4408 5.93199 16.6255 6.00288C16.7362 6.96358 16.8845 7.92499 16.8433 8.89654H19.9539H19.9532Z" fill="#101F3C"/>
<path d="M9.73716 16.946C10.3159 16.8925 10.7478 17.2202 11.3171 17.2795C12.4934 17.4025 12.9332 17.0972 13.9301 16.9438C15.6713 16.6762 17.5739 18.7061 18.2069 20.1558C18.6084 21.0752 19.2139 22.9742 17.6774 23.0784H6.31396C4.91633 23.0559 5.41259 21.1642 5.73957 20.328C6.34941 18.7661 8.00386 17.1066 9.73788 16.946H9.73716Z" fill="#101F3C"/>
<path d="M11.4734 8.84447C15.264 8.38655 17.3576 13.4787 14.3041 15.7987C11.9291 17.6036 8.3359 15.9607 8.16301 12.9831C8.0545 11.1196 9.58163 9.07307 11.4734 8.84447Z" fill="#101F3C"/>
<path d="M19.3745 21.774C19.3195 20.7055 18.8912 19.6349 18.306 18.7552C18.0499 18.3704 17.6586 18.0311 17.4205 17.6875C17.3779 17.626 17.32 17.6158 17.3497 17.5066C19.5749 16.5575 22.9785 16.776 23.7837 19.4996C24.0152 20.2838 24.3154 21.6431 23.1731 21.774C21.9954 21.9086 20.579 21.6735 19.3752 21.774H19.3745Z" fill="#101F3C"/>
<path d="M4.68917 21.7741L0.744394 21.7755C-0.326983 21.6518 0.00940493 20.2332 0.224259 19.5156C1.01061 16.8903 4.54449 16.3803 6.64095 17.6868C5.49072 18.7249 4.77526 20.2238 4.68917 21.7748V21.7741Z" fill="#101F3C"/>
<path d="M18.0253 12.2496C20.5406 9.73425 24.2438 13.8013 21.5064 15.9838C18.9658 18.0094 15.7668 14.5073 18.0253 12.2496Z" fill="#101F3C"/>
<path d="M3.80516 11.5211C5.97396 11.2722 7.59875 13.7745 6.1729 15.5527C4.47432 17.6716 1.16976 16.2421 1.59585 13.5076C1.75428 12.4897 2.81119 11.6354 3.80516 11.5211Z" fill="#101F3C"/>
<path d="M19.9532 8.89653H16.8425C16.8838 7.92499 16.7355 6.96357 16.6248 6.00287C17.4408 5.9327 18.2134 5.62814 18.9788 5.36844C19.6183 6.4239 19.9062 7.66745 19.9525 8.89653H19.9532Z" fill="white"/>
<path d="M4.0381 8.89653C4.10972 7.67758 4.31806 6.39569 5.01182 5.36844L7.36364 6.00504L7.07572 8.89653H4.03738H4.0381Z" fill="white"/>
<path d="M12.5744 1.22836C14.1825 1.77888 14.8546 3.6207 15.251 5.13408L12.5744 5.35183V1.22836Z" fill="white"/>
<path d="M11.4169 1.22836V5.35183L8.73957 5.09791C9.15192 3.59248 9.81384 1.79046 11.4169 1.22836Z" fill="white"/>
<path d="M18.3617 4.41068L16.3369 4.91851L15.9564 3.59828L15.1071 1.80783C16.1727 2.28311 17.278 3.01015 18.0369 3.90501C18.1006 3.97952 18.408 4.34991 18.361 4.4114L18.3617 4.41068Z" fill="white"/>
<path d="M8.95732 1.80779C8.3265 2.72002 7.92934 3.77186 7.64938 4.84035L5.62961 4.41064C5.59778 4.28549 5.6817 4.26596 5.7374 4.19361C5.99059 3.86374 6.57005 3.31032 6.89776 3.03904C7.12057 2.85385 8.81263 1.68698 8.95732 1.80779Z" fill="white"/>
</g>
<defs>
<clipPath id="clip0_15360_1345">
<rect width="24" height="23.0784" fill="white"/>
</clipPath>
</defs>
</svg>
