<svg width="32" height="29" viewBox="0 0 32 29" fill="none" xmlns="http://www.w3.org/2000/svg">
<path d="M18.6598 16.2559C18.6598 16.7332 18.5362 17.2021 18.3014 17.6155C18.0665 18.0288 17.7288 18.3721 17.322 18.6107C16.9152 18.8494 16.4538 18.975 15.9841 18.975C15.5145 18.975 15.053 18.8494 14.6463 18.6108C14.2395 18.3721 13.9017 18.0289 13.6669 17.6155C13.432 17.2022 13.3084 16.7333 13.3084 16.256C13.3084 15.7787 13.432 15.3098 13.6669 14.8965C13.9017 14.4831 14.2395 14.1399 14.6462 13.9012V6.73925C14.6462 6.37868 14.7872 6.03288 15.0381 5.77792C15.289 5.52296 15.6293 5.37973 15.9841 5.37973C16.3389 5.37973 16.6792 5.52296 16.9301 5.77792C17.181 6.03288 17.322 6.37868 17.322 6.73925V13.9012C17.7287 14.1399 18.0665 14.4831 18.3013 14.8964C18.5362 15.3098 18.6598 15.7786 18.6598 16.2559ZM26.687 4.0909C23.5623 1.28417 19.4856 -0.176844 15.3196 0.0171107C11.1536 0.211066 7.22533 2.04477 4.36634 5.13007C1.50735 8.21538 -0.0579955 12.3101 0.00164369 16.5476C0.0612829 20.7851 1.74122 24.8327 4.68587 27.8336C5.40802 28.5501 6.36814 28.9655 7.37687 28.9979C8.38559 29.0304 9.36967 28.6776 10.135 28.009L11.5076 26.8017C11.7762 26.5659 11.9416 26.2313 11.9675 25.8716C11.9933 25.5119 11.8775 25.1564 11.6454 24.8835C11.4134 24.6105 11.0841 24.4424 10.7301 24.4161C10.3761 24.3899 10.0263 24.5076 9.7577 24.7434L8.38372 25.952C8.13021 26.1771 7.80253 26.2968 7.46603 26.2872C7.12953 26.2776 6.80895 26.1395 6.56824 25.9004C4.68701 24.0062 3.4013 21.5873 2.87397 18.95C2.34665 16.3127 2.60142 13.5757 3.60604 11.0857C4.61065 8.59564 6.31989 6.46461 8.51728 4.9625C10.7147 3.46039 13.3013 2.65479 15.9496 2.64773C18.5979 2.64068 21.1887 3.43249 23.3938 4.92287C25.5989 6.41325 27.3191 8.53514 28.3365 11.0198C29.354 13.5044 29.6229 16.24 29.1092 18.8801C28.5954 21.5202 27.3222 23.9459 25.4508 25.8501C25.211 26.1056 24.8842 26.2583 24.5373 26.277C24.1904 26.2957 23.8495 26.179 23.5845 25.9507L22.2105 24.7434C22.0775 24.6267 21.9232 24.5377 21.7563 24.4815C21.5895 24.4254 21.4134 24.4031 21.2381 24.4161C21.0628 24.4291 20.8918 24.4771 20.7347 24.5573C20.5777 24.6375 20.4377 24.7483 20.3228 24.8835C20.0907 25.1564 19.9749 25.5119 20.0007 25.8716C20.0135 26.0497 20.0607 26.2236 20.1396 26.3831C20.2185 26.5427 20.3276 26.685 20.4606 26.8017L21.8346 28.0076C22.6134 28.6804 23.6135 29.0298 24.6348 28.986C25.6562 28.9421 26.6236 28.5082 27.3439 27.7711C28.875 26.1963 30.0764 24.3227 30.8755 22.2633C31.6746 20.2039 32.055 18.0013 31.9936 15.7884C31.9322 13.5755 31.4304 11.3982 30.5183 9.38777C29.6063 7.37736 28.303 5.5755 26.687 4.0909Z" fill="#AAAACC"/>
</svg>
