<svg width="24" height="25" viewBox="0 0 24 25" fill="none" xmlns="http://www.w3.org/2000/svg">
<g clip-path="url(#clip0_2447_3124)">
<path d="M17.5585 0C18.8327 0 20.0781 0.377956 21.1375 1.08579C22.1968 1.79362 23.0225 2.79979 23.51 3.97662C23.9975 5.15384 24.1252 6.4489 23.8766 7.69863C23.6279 8.94837 23.0146 10.096 22.1137 10.997C21.2127 11.8979 20.0651 12.5116 18.8153 12.7599C17.5656 13.0085 16.2705 12.8808 15.0933 12.3933C13.9161 11.9058 12.9103 11.0801 12.2025 10.0208C11.4947 8.96138 11.1167 7.71597 11.1167 6.4418C11.1187 4.7341 11.7977 3.09656 13.0053 1.88899C14.2133 0.68103 15.8504 0.00197057 17.5585 0ZM15.411 6.97859H17.0213V8.58894C17.0213 8.73121 17.0781 8.86797 17.1786 8.96847C17.2791 9.06897 17.4158 9.12572 17.5581 9.12572C17.7004 9.12572 17.8371 9.06897 17.9376 8.96847C18.0381 8.86797 18.0949 8.73121 18.0949 8.58894V6.97859H19.7052C19.8475 6.97859 19.9843 6.92183 20.0848 6.82133C20.1853 6.72084 20.242 6.58408 20.242 6.4418C20.242 6.29953 20.1853 6.16277 20.0848 6.06227C19.9843 5.96177 19.8475 5.90502 19.7052 5.90502H18.0949V4.29467C18.0949 4.15239 18.0381 4.01563 17.9376 3.91513C17.8371 3.81463 17.7004 3.75788 17.5581 3.75788C17.4158 3.75788 17.2791 3.81463 17.1786 3.91513C17.0781 4.01563 17.0213 4.15239 17.0213 4.29467V5.90502H15.411C15.2687 5.90502 15.1319 5.96177 15.0314 6.06227C14.9309 6.16277 14.8742 6.29953 14.8742 6.4418C14.8742 6.58408 14.9309 6.72084 15.0314 6.82133C15.1319 6.92183 15.2687 6.97859 15.411 6.97859Z" fill="white"/>
<path d="M10.2493 6.44177C10.2493 6.05042 10.2805 5.66616 10.3396 5.29175L8.47425 5.64133C6.48594 6.01377 5.04506 7.74984 5.04467 9.77283V18.0544C4.53586 17.7517 3.95533 17.5905 3.36298 17.5869C1.50552 17.5869 0 19.0928 0 20.9499C0 22.807 1.50591 24.3129 3.36298 24.3129C5.22005 24.3129 6.72596 22.807 6.72596 20.9499V13.2785C6.72596 12.469 7.30255 11.7745 8.09827 11.6256L11.7911 10.9319C10.8247 9.69282 10.2489 8.1341 10.2489 6.44099L10.2493 6.44177Z" fill="white"/>
<path d="M18.4968 13.6911V15.5355C17.988 15.2317 17.4079 15.0693 16.8151 15.0646C14.9577 15.0646 13.4521 16.5705 13.4521 18.4275C13.4521 20.2846 14.9581 21.7905 16.8151 21.7905C18.6722 21.7905 20.1781 20.285 20.1781 18.4275V13.2666C19.6449 13.4715 19.0817 13.6162 18.4964 13.6911H18.4968Z" fill="white"/>
</g>
<defs>
<clipPath id="clip0_2447_3124">
<rect width="24" height="24.3133" fill="white"/>
</clipPath>
</defs>
</svg>
