<svg viewBox="0 0 18 18" xmlns="http://www.w3.org/2000/svg"><g data-name="chat"><path data-name="Path 3086" d="M18.001 8.453a9.009 9.009 0 1 0-8.987 9.564h5.237a3.754 3.754 0 0 0 3.75-3.75Zm-1.5 5.814a2.25 2.25 0 0 1-2.25 2.25H9.013a7.53 7.53 0 0 1-5.607-2.507 7.437 7.437 0 0 1-1.857-5.86 7.532 7.532 0 0 1 6.492-6.571 7.923 7.923 0 0 1 .975-.061 7.44 7.44 0 0 1 4.785 1.725 7.53 7.53 0 0 1 2.7 5.281Z"></path><path data-name="Path 3087" d="M6 6.768h3a.75.75 0 1 0 0-1.5H6a.75.75 0 0 0 0 1.5Z"></path><path data-name="Path 3088" d="M12 8.267H6a.75.75 0 0 0 0 1.5h6a.75.75 0 0 0 0-1.5Z"></path><path data-name="Path 3089" d="M12 11.267H6a.75.75 0 0 0 0 1.5h6a.75.75 0 0 0 0-1.5Z"></path></g></svg>