<svg viewBox="0 0 16 16" xmlns="http://www.w3.org/2000/svg"><g clip-path="url(#dua)"><path d="M8 11.333a3.335 3.335 0 0 1 0-6.666 3.335 3.335 0 0 1 0 6.666ZM8 6c-1.1 0-2 .9-2 2s.9 2 2 2 2-.9 2-2-.9-2-2-2Zm.667-3.333v-2C8.667.3 8.367 0 8 0c-.367 0-.667.3-.667.667v2c0 .366.3.666.667.666.367 0 .667-.3.667-.666Zm0 12.666v-2c0-.366-.3-.666-.667-.666-.367 0-.667.3-.667.666v2c0 .367.3.667.667.667.367 0 .667-.3.667-.667ZM3.333 8c0-.367-.3-.667-.666-.667h-2C.3 7.333 0 7.633 0 8c0 .367.3.667.667.667h2c.366 0 .666-.3.666-.667ZM16 8c0-.367-.3-.667-.667-.667h-2c-.366 0-.666.3-.666.667 0 .367.3.667.666.667h2c.367 0 .667-.3.667-.667ZM4.473 4.473c.26-.26.26-.68 0-.94L3.14 2.2a.664.664 0 1 0-.94.94l1.333 1.333c.134.134.3.194.474.194.173 0 .34-.067.473-.194h-.007Zm9.334 9.334c.26-.26.26-.68 0-.94l-1.334-1.334a.664.664 0 1 0-.94.94l1.334 1.334c.133.133.3.193.473.193s.34-.067.473-.193h-.006Zm-10.667 0 1.333-1.334a.664.664 0 1 0-.94-.94L2.2 12.867A.664.664 0 0 0 2.673 14c.174 0 .34-.067.474-.193H3.14Zm9.333-9.334 1.334-1.333a.664.664 0 1 0-.94-.94l-1.334 1.333a.664.664 0 0 0 .474 1.134c.173 0 .34-.067.473-.194h-.007Z"></path></g><defs><clipPath><path d="M0 0h16v16H0z"></path></clipPath></defs></svg>