<svg viewBox="0 0 18 18" xmlns="http://www.w3.org/2000/svg"><path d="M15 5.25h-1.3a3.853 3.853 0 0 0 1.3-3 .75.75 0 1 0-1.5 0c0 1.966-1.778 2.647-3.131 2.881a7 7 0 0 0 .881-2.881 2.25 2.25 0 1 0-4.5 0 7 7 0 0 0 .881 2.881C6.278 4.9 4.5 4.216 4.5 2.25a.75.75 0 1 0-1.5 0 3.853 3.853 0 0 0 1.3 3H3a3 3 0 0 0-3 3V9a1.5 1.5 0 0 0 1.5 1.5v3.75A3.755 3.755 0 0 0 5.25 18h7.5a3.755 3.755 0 0 0 3.75-3.75V10.5A1.5 1.5 0 0 0 18 9v-.75a3 3 0 0 0-3-3ZM9 1.5a.75.75 0 0 1 .75.75A5.782 5.782 0 0 1 9 4.51a5.783 5.783 0 0 1-.75-2.26A.75.75 0 0 1 9 1.5ZM1.5 8.25A1.5 1.5 0 0 1 3 6.75h5.25V9H1.5Zm1.5 6V10.5h5.25v6h-3A2.25 2.25 0 0 1 3 14.25Zm12 0a2.25 2.25 0 0 1-2.25 2.25h-3v-6H15ZM9.75 9V6.75H15a1.5 1.5 0 0 1 1.5 1.5V9Z"></path></svg>