<svg viewBox="0 0 18 17.998" xmlns="http://www.w3.org/2000/svg"><g data-name="refer-friend"><path data-name="Path 3074" d="M6.75 9a4.5 4.5 0 1 0-4.5-4.5A4.5 4.5 0 0 0 6.75 9Zm0-7.5a3 3 0 1 1-3 3 3 3 0 0 1 3-3Z"></path><path data-name="Path 3075" d="M6.749 10.499A6.758 6.758 0 0 0 0 17.248a.75.75 0 1 0 1.5 0 5.25 5.25 0 0 1 10.5 0 .75.75 0 0 0 1.5 0 6.758 6.758 0 0 0-6.751-6.749Z"></path><path data-name="Path 3076" d="M16.5 5.905a1.58 1.58 0 0 0-1.5 1.65 1.507 1.507 0 1 0-3 0c0 1.3 1.692 2.817 2.535 3.494a.744.744 0 0 0 .93 0c.843-.675 2.535-2.2 2.535-3.494a1.58 1.58 0 0 0-1.5-1.65Z"></path></g></svg>