<svg viewBox="0 0 18 18" xmlns="http://www.w3.org/2000/svg"><g data-name="settings"><path data-name="Path 3079" d="M.75 3.562H2.8a2.8 2.8 0 0 0 5.4 0h9.05a.75.75 0 1 0 0-1.5H8.2a2.8 2.8 0 0 0-5.4 0H.75a.75.75 0 1 0 0 1.5ZM5.5 1.5a1.312 1.312 0 1 1-1.313 1.312A1.312 1.312 0 0 1 5.5 1.5Z"></path><path data-name="Path 3080" d="M17.25 8.25H15.2a2.8 2.8 0 0 0-5.4 0H.75a.75.75 0 1 0 0 1.5H9.8a2.8 2.8 0 0 0 5.4 0h2.05a.75.75 0 1 0 0-1.5Zm-4.75 2.063a1.312 1.312 0 1 1 1.313-1.312 1.312 1.312 0 0 1-1.313 1.312Z"></path><path data-name="Path 3081" d="M17.25 14.437H8.2a2.8 2.8 0 0 0-5.4 0H.75a.75.75 0 1 0 0 1.5H2.8a2.8 2.8 0 0 0 5.4 0h9.05a.75.75 0 1 0 0-1.5ZM5.5 16.5a1.312 1.312 0 1 1 1.313-1.312A1.312 1.312 0 0 1 5.5 16.5Z"></path></g></svg>