<svg viewBox="0 0 20 19.999" xmlns="http://www.w3.org/2000/svg"><path fill="currentColor" d="M19.1.576a2.493 2.493 0 0 0-2.061-.532l-10 1.872A2.5 2.5 0 0 0 5 4.376V13.8a3.3 3.3 0 0 0-1.667-.463 3.333 3.333 0 1 0 3.333 3.333V7.85l11.667-2.183V11.3a3.3 3.3 0 0 0-1.667-.468A3.333 3.333 0 1 0 20 14.167V2.5a2.5 2.5 0 0 0-.9-1.924ZM3.333 18.333A1.667 1.667 0 1 1 5 16.667a1.667 1.667 0 0 1-1.667 1.666ZM6.667 6.155V4.376a.833.833 0 0 1 .679-.819l10-1.875a.833.833 0 0 1 .988.818v1.467Zm10 9.678a1.667 1.667 0 1 1 1.667-1.667 1.667 1.667 0 0 1-1.667 1.667Z" data-name="musical-note"></path></svg>