<svg viewBox="0 0 64 64" xml:space="preserve" xmlns="http://www.w3.org/2000/svg"><path d="M9.393 9.377C15.44 3.329 23.465 0 32.016 0c8.551 0 16.575 3.329 22.623 9.377 11.69 11.69 12.503 30.403 2.016 43.027 1.029 2.07 2.68 4.479 5.129 5.683a2.978 2.978 0 0 1 1.637 3.14 3 3 0 0 1-2.503 2.516c-.61.095-1.475.19-2.53.19-2.829 0-6.996-.664-11.258-3.735A31.82 31.82 0 0 1 32.03 64c-8.281 0-16.48-3.207-22.65-9.377C3.33 48.575.002 40.551.002 32c0-8.551 3.342-16.575 9.39-22.623Zm2.584 42.662c9.133 9.133 23.273 10.946 34.395 4.41a1.819 1.819 0 0 1 2.22.285.6.6 0 0 1 .148.108c3.667 2.842 7.266 3.437 9.647 3.437h.014c-2.747-2.002-4.479-4.98-5.494-7.293a1.869 1.869 0 0 1-.094-1.177 1.9 1.9 0 0 1 .446-1.028c9.905-11.19 9.39-28.239-1.19-38.82C41.013.907 23.031.907 11.99 11.961.923 23.016.923 40.984 11.977 52.04Z"></path></svg>