<svg viewBox="0 0 24 24" xmlns="http://www.w3.org/2000/svg"><path fill="currentColor" d="M23.3 9.034A3 3 0 0 0 21.03 8h-.086A9 9 0 0 0 3.056 8H3a3 3 0 0 0-2.97 3.425l1.061 7.424A6.03 6.03 0 0 0 7.031 24H17a6.031 6.031 0 0 0 5.94-5.151L24 11.425a3 3 0 0 0-.7-2.391ZM12 2a7.011 7.011 0 0 1 6.928 6H5.072A7.011 7.011 0 0 1 12 2Zm10.021 9.142-1.061 7.424A4.02 4.02 0 0 1 17 22H7.031a4.019 4.019 0 0 1-3.96-3.435L2.01 11.142A1 1 0 0 1 3 10h18.03a1 1 0 0 1 .99 1.142ZM13 13v6a1 1 0 0 1-2 0v-6a1 1 0 0 1 2 0Zm5 0v6a1 1 0 0 1-2 0v-6a1 1 0 0 1 2 0ZM8 13v6a1 1 0 0 1-2 0v-6a1 1 0 0 1 2 0Z"></path></svg>