<svg viewBox="0 0 20 13.332" xmlns="http://www.w3.org/2000/svg"><path fill="currentColor" d="M19.086 2.114a1.642 1.642 0 0 0-1.731.157.84.84 0 0 0-.092.08L15.8 3.828a4.158 4.158 0 0 0-4.133-3.829h-7.5A4.17 4.17 0 0 0 0 4.166v5a4.171 4.171 0 0 0 4.167 4.167h7.5A4.159 4.159 0 0 0 15.8 9.477l1.463 1.462a.981.981 0 0 0 .089.077A1.654 1.654 0 0 0 20 9.692V3.599a1.643 1.643 0 0 0-.914-1.479Zm-7.419 9.552h-7.5a2.5 2.5 0 0 1-2.5-2.5v-5a2.5 2.5 0 0 1 2.5-2.5h7.5a2.5 2.5 0 0 1 2.5 2.5v5a2.5 2.5 0 0 1-2.5 2.5Zm4.167-4.514v-.991l2.5-2.523.021 6.032-2.521-2.518Z"></path></svg>