<svg viewBox="0 0 18 18" xmlns="http://www.w3.org/2000/svg"><path d="M9 0a9 9 0 1 0 9 9 9 9 0 0 0-9-9Zm6.485 5.25h-2.416a14.757 14.757 0 0 0-2.116-3.483 7.523 7.523 0 0 1 4.532 3.483ZM12.375 9a7.658 7.658 0 0 1-.357 2.25H5.982A7.658 7.658 0 0 1 5.625 9a7.658 7.658 0 0 1 .357-2.25h6.036A7.658 7.658 0 0 1 12.375 9Zm-5.792 3.75h4.833A14.71 14.71 0 0 1 9 16.191a14.678 14.678 0 0 1-2.417-3.441Zm0-7.5A14.711 14.711 0 0 1 9 1.809a14.678 14.678 0 0 1 2.416 3.441Zm.467-3.483A14.757 14.757 0 0 0 4.931 5.25H2.515A7.523 7.523 0 0 1 7.05 1.767ZM1.846 6.75h2.579a9.012 9.012 0 0 0-.3 2.25 9.012 9.012 0 0 0 .3 2.25H1.846a7.494 7.494 0 0 1 0-4.5Zm.669 6h2.416a14.757 14.757 0 0 0 2.12 3.483 7.523 7.523 0 0 1-4.536-3.483Zm8.439 3.483a14.757 14.757 0 0 0 2.116-3.483h2.416a7.523 7.523 0 0 1-4.531 3.483Zm5.2-4.983h-2.579a9.012 9.012 0 0 0 .3-2.25 9.012 9.012 0 0 0-.3-2.25h2.578a7.494 7.494 0 0 1 0 4.5Z"></path></svg>