<svg viewBox="0 0 18 18.194" xmlns="http://www.w3.org/2000/svg"><g data-name="logout"><path data-name="Path 3082" d="M8.7 11.371a.758.758 0 0 0-.758.758V14.4a2.274 2.274 0 0 1-2.274 2.274H3.79A2.274 2.274 0 0 1 1.516 14.4V3.79A2.274 2.274 0 0 1 3.79 1.516h1.877A2.274 2.274 0 0 1 7.942 3.79v2.275a.758.758 0 0 0 1.516 0V3.79A3.8 3.8 0 0 0 5.667 0H3.79A3.8 3.8 0 0 0 0 3.79V14.4a3.8 3.8 0 0 0 3.79 3.79h1.877a3.8 3.8 0 0 0 3.79-3.79v-2.271a.758.758 0 0 0-.757-.758Z"></path><path data-name="Path 3083" d="m17.335 7.49-3.477-3.478a.758.758 0 1 0-1.068 1.072l3.231 3.232-11.473.022a.758.758 0 1 0 0 1.516l11.514-.024-3.277 3.278a.758.758 0 1 0 1.072 1.072l3.476-3.477a2.274 2.274 0 0 0 0-3.216Z"></path></g></svg>