<svg viewBox="0 0 24 24" xmlns="http://www.w3.org/2000/svg"><path d="m10.51 10.666 1.948 1.12 1.5-2.6-1.94-1.12c.08-.35.12-.71.12-1.079 0-.37-.05-.73-.12-1.08l1.94-1.119-1.5-2.599-1.949 1.12c-.53-.49-1.17-.85-1.87-1.07V0H5.642v2.26c-.7.219-1.34.589-1.87 1.069l-1.948-1.12-1.49 2.599 1.94 1.12c-.08.35-.12.71-.12 1.08 0 .369.05.729.12 1.079l-1.94 1.1 1.5 2.598 1.949-1.12c.53.49 1.17.85 1.87 1.07v2.26H8.65v-2.26c.7-.22 1.34-.59 1.87-1.07h-.01ZM7.14 4.998c1.1 0 2 .9 2 2 0 1.099-.9 1.998-2 1.998-1.099 0-1.999-.9-1.999-1.999 0-1.1.9-2 2-2Zm14.994 11.995c0-.37-.05-.73-.12-1.08l1.94-1.12-1.5-2.598-1.949 1.12c-.53-.49-1.17-.85-1.87-1.07v-2.26h-2.998v2.26c-.7.22-1.34.59-1.87 1.07l-1.948-1.12-1.5 2.599 1.94 1.12c-.08.35-.12.71-.12 1.079 0 .37.05.73.12 1.08l-1.94 1.119 1.5 2.599 1.949-1.12c.53.49 1.17.85 1.869 1.07V24h2.999v-2.26c.7-.219 1.34-.589 1.869-1.069l1.95 1.12 1.498-2.599-1.939-1.12c.08-.35.12-.71.12-1.08Zm-4.998 2c-1.1 0-1.999-.9-1.999-2s.9-2 2-2c1.099 0 1.998.9 1.998 2s-.9 2-1.999 2Z"></path></svg>