<svg width="24" height="17" viewBox="0 0 24 17" fill="none" xmlns="http://www.w3.org/2000/svg">
<path d="M9.6 14.4H1.2C0.48 14.4 0 13.92 0 13.2C0 12.48 0.48 12 1.2 12H9.6C10.32 12 10.8 12.48 10.8 13.2C10.8 13.92 10.32 14.4 9.6 14.4Z" fill="black"/>
<path d="M22.8 13.2H15.6C14.88 13.2 14.4 12.72 14.4 12C14.4 11.28 14.88 10.8 15.6 10.8H22.8C23.52 10.8 24 11.28 24 12C24 12.72 23.52 13.2 22.8 13.2Z" fill="black"/>
<path d="M19.2 16.8C18.48 16.8 18 16.32 18 15.6V8.40001C18 7.68001 18.48 7.20001 19.2 7.20001C19.92 7.20001 20.4 7.68001 20.4 8.40001V15.6C20.4 16.32 19.92 16.8 19.2 16.8Z" fill="black"/>
<path d="M14.4 8.4H1.2C0.48 8.4 0 7.92 0 7.2C0 6.48 0.48 6 1.2 6H14.4C15.12 6 15.6 6.48 15.6 7.2C15.6 7.92 15.12 8.4 14.4 8.4Z" fill="black"/>
<path d="M14.4 2.4H1.2C0.48 2.4 0 1.92 0 1.2C0 0.48 0.48 0 1.2 0H14.4C15.12 0 15.6 0.48 15.6 1.2C15.6 1.92 15.12 2.4 14.4 2.4Z" fill="black"/>
</svg>
