<svg xmlns="http://www.w3.org/2000/svg" width="48" height="48" viewBox="0 0 48 48">
  <path id="album-circle-plus_1_" data-name="album-circle-plus (1)" d="M48,38a2.006,2.006,0,0,1-2,2H40v6a2,2,0,1,1-4,0V40H30a2,2,0,1,1,0-4h6V30a2,2,0,1,1,4,0v6h6A2.006,2.006,0,0,1,48,38ZM35.88,22.24a1.991,1.991,0,1,0,3.94-.58A16.006,16.006,0,1,0,21.8,39.86h.28a2.009,2.009,0,0,0,.26-4A12.007,12.007,0,1,1,35.86,22.2ZM21,24a3,3,0,1,0,3-3A3,3,0,0,0,21,24ZM38,0H10A10,10,0,0,0,0,10V38A10,10,0,0,0,10,48H30a2,2,0,0,0,0-4H10a6.018,6.018,0,0,1-6-6V10a6.018,6.018,0,0,1,6-6H38a6.018,6.018,0,0,1,6,6V30a2,2,0,0,0,4,0V10A10,10,0,0,0,38,0Z" fill="#c7c4d6"/>
</svg>
