<svg xmlns="http://www.w3.org/2000/svg" width="50.216" height="50.2" viewBox="0 0 50.216 50.2">
  <g id="watching-tv" transform="translate(0.1 0.1)">
    <path id="Path_3132" data-name="Path 3132" d="M200.286,440.052a.977.977,0,1,0,.691-.286A.985.985,0,0,0,200.286,440.052Zm0,0" transform="translate(-180.463 -396.806)" fill="#626984" stroke="#707070" stroke-width="0.2"/>
    <path id="Path_3133" data-name="Path 3133" d="M60.742,214.4H71.26a1.956,1.956,0,0,0,1.954-1.954V189.79a1.956,1.956,0,0,0-1.954-1.954H41.954A1.956,1.956,0,0,0,40,189.79v22.657a1.956,1.956,0,0,0,1.954,1.954H52.508a.977.977,0,0,0,0-1.954H41.954V189.79H71.26v22.657H60.742a.977.977,0,0,0,0,1.954Zm0,0" transform="translate(-36.092 -169.487)" fill="#626984" stroke="#707070" stroke-width="0.2"/>
    <path id="Path_3134" data-name="Path 3134" d="M44.3,13.269H27.431l11.6-11.6A.977.977,0,1,0,37.651.286L25.01,12.928,18.1,6.022A.977.977,0,1,0,16.722,7.4l5.866,5.866H12.895a.977.977,0,1,0,0,1.954H44.3a3.765,3.765,0,0,1,3.761,3.761v25.3A3.765,3.765,0,0,1,44.3,48.046H5.715a3.765,3.765,0,0,1-3.761-3.761v-25.3a3.765,3.765,0,0,1,3.761-3.761.977.977,0,0,0,0-1.954A5.721,5.721,0,0,0,0,18.984v25.3A5.721,5.721,0,0,0,5.715,50H44.3a5.721,5.721,0,0,0,5.715-5.715v-25.3A5.721,5.721,0,0,0,44.3,13.269Zm0,0" transform="translate(0 0)" fill="#626984" stroke="#707070" stroke-width="0.2"/>
    <path id="Path_3135" data-name="Path 3135" d="M87.477,137.79a.977.977,0,1,0-.691-.286A.985.985,0,0,0,87.477,137.79Zm0,0" transform="translate(-78.05 -122.566)" fill="#626984" stroke="#707070" stroke-width="0.2"/>
    <path id="Path_3136" data-name="Path 3136" d="M405.321,194.479A3.321,3.321,0,1,0,402,191.157,3.325,3.325,0,0,0,405.321,194.479Zm0-4.689a1.368,1.368,0,1,1-1.368,1.368A1.369,1.369,0,0,1,405.321,189.79Zm0,0" transform="translate(-362.73 -169.487)" fill="#626984" stroke="#707070" stroke-width="0.2"/>
    <path id="Path_3137" data-name="Path 3137" d="M405.321,285.459A3.321,3.321,0,1,0,402,282.138,3.325,3.325,0,0,0,405.321,285.459Zm0-4.689a1.368,1.368,0,1,1-1.368,1.368A1.369,1.369,0,0,1,405.321,280.77Zm0,0" transform="translate(-362.73 -251.58)" fill="#626984" stroke="#707070" stroke-width="0.2"/>
    <path id="Path_3138" data-name="Path 3138" d="M402.977,441.723h4.982a.977.977,0,0,0,0-1.954h-4.982a.977.977,0,0,0,0,1.954Zm0,0" transform="translate(-362.73 -396.81)" fill="#626984" stroke="#707070" stroke-width="0.2"/>
    <path id="Path_3139" data-name="Path 3139" d="M402.977,401.7h4.982a.977.977,0,0,0,0-1.954h-4.982a.977.977,0,0,0,0,1.954Zm0,0" transform="translate(-362.73 -360.699)" fill="#626984" stroke="#707070" stroke-width="0.2"/>
    <path id="Path_3140" data-name="Path 3140" d="M402.977,361.68h4.982a.977.977,0,0,0,0-1.954h-4.982a.977.977,0,0,0,0,1.954Zm0,0" transform="translate(-362.73 -324.586)" fill="#626984" stroke="#707070" stroke-width="0.2"/>
    <path id="Path_3141" data-name="Path 3141" d="M169.149,267.747a2.219,2.219,0,0,0-1.121-1.942l-6.623-3.824a2.242,2.242,0,0,0-3.363,1.942v7.647a2.237,2.237,0,0,0,3.363,1.942l6.623-3.824A2.22,2.22,0,0,0,169.149,267.747Zm-2.1.249-6.623,3.824a.288.288,0,0,1-.432-.25v-7.647a.278.278,0,0,1,.144-.25.3.3,0,0,1,.145-.04.282.282,0,0,1,.143.04l6.623,3.824a.288.288,0,0,1,0,.5Zm0,0" transform="translate(-142.604 -236.115)" fill="#626984" stroke="#707070" stroke-width="0.2"/>
  </g>
</svg>
