<svg id="registration" xmlns="http://www.w3.org/2000/svg" width="42.44" height="50" viewBox="0 0 42.44 50">
  <path id="Path_3142" data-name="Path 3142" d="M357.627,239.963l-9.1,15.768a4.677,4.677,0,0,0-.619,2.064c-.061.994-.192,3.173-.314,5.234a4.689,4.689,0,0,0,7.265,4.2c1.724-1.14,3.546-2.34,4.376-2.889a4.683,4.683,0,0,0,1.477-1.569l9.1-15.768a4.689,4.689,0,0,0-1.716-6.407l-4.062-2.345A4.689,4.689,0,0,0,357.627,239.963Zm7.893-7.938v-6.99A7.035,7.035,0,0,0,358.485,218h-23.45A7.037,7.037,0,0,0,328,225.035v32.83a7.035,7.035,0,0,0,7.035,7.035h6.894a2.345,2.345,0,0,0,0-4.69h-6.894a2.346,2.346,0,0,1-2.345-2.345v-32.83a2.346,2.346,0,0,1,2.345-2.345h23.45a2.346,2.346,0,0,1,2.345,2.345v6.99a2.345,2.345,0,0,0,4.69,0Zm-3.832,10.283,4.061,2.345-9.1,15.768-4.376,2.889.314-5.234Zm-21.963,10.867h5.1a2.345,2.345,0,1,0,0-4.69h-5.1a2.345,2.345,0,1,0,0,4.69Zm0-9.38h10.2a2.345,2.345,0,1,0,0-4.69h-10.2a2.345,2.345,0,1,0,0,4.69Zm0-9.38H353.8a2.345,2.345,0,0,0,0-4.69h-14.07a2.345,2.345,0,1,0,0,4.69Z" transform="translate(-328 -218)" fill="#626984" fill-rule="evenodd"/>
</svg>
