<svg id="apps-add" xmlns="http://www.w3.org/2000/svg" width="24" height="24" viewBox="0 0 24 24">
  <path id="Path_3146" data-name="Path 3146" d="M278.834,7h2.5V9.5a1.5,1.5,0,0,0,3,0V7h2.5a1.5,1.5,0,0,0,0-3h-2.5V1.5a1.5,1.5,0,0,0-3,0V4h-2.5a1.5,1.5,0,0,0,0,3Z" transform="translate(-264.334)" fill="#fff"/>
  <path id="Path_3147" data-name="Path 3147" d="M5.5,0A5.5,5.5,0,1,0,11,5.5,5.5,5.5,0,0,0,5.5,0Zm0,8A2.5,2.5,0,1,1,8,5.5,2.5,2.5,0,0,1,5.5,8Z" fill="#fff"/>
  <path id="Path_3148" data-name="Path 3148" d="M5.5,277.333a5.5,5.5,0,1,0,5.5,5.5A5.5,5.5,0,0,0,5.5,277.333Zm0,8a2.5,2.5,0,1,1,2.5-2.5A2.5,2.5,0,0,1,5.5,285.333Z" transform="translate(0 -264.333)" fill="#fff"/>
  <path id="Path_3149" data-name="Path 3149" d="M282.834,277.333a5.5,5.5,0,1,0,5.5,5.5A5.5,5.5,0,0,0,282.834,277.333Zm0,8a2.5,2.5,0,1,1,2.5-2.5A2.5,2.5,0,0,1,282.834,285.333Z" transform="translate(-264.334 -264.333)" fill="#fff"/>
</svg>
