<svg width="24" height="21" viewBox="0 0 24 21" fill="none" xmlns="http://www.w3.org/2000/svg">
<g clip-path="url(#clip0_15360_1323)">
<path d="M1.3107 0.0132644L22.6625 0C23.3764 0.159953 23.8813 0.613284 23.9562 1.35921C24.0014 1.81176 24.1317 3.09841 23.5317 3.11792L3.93939 3.11011C3.63587 3.09139 3.40492 3.27709 3.26135 3.52443L3.20049 20.0831C3.10686 20.5731 1.47846 20.4959 1.06102 20.4311C0.524199 20.3468 0.0380974 19.7601 0.00220551 19.2272L-0.000915527 1.43412C0.0560434 0.69131 0.569454 0.11938 1.3107 0.0132644Z" fill="#101F3C"/>
<path d="M8.19585 15.208V18.9143C8.19585 18.9548 8.03199 19.416 7.99298 19.4917C7.31103 20.8517 4.67922 20.8727 4.68 19.0703C4.68078 17.7821 5.85897 17.463 6.94743 17.4716C7.08086 17.3428 6.86784 14.3162 6.95211 13.77C6.99191 13.5102 7.20258 13.1778 7.47177 13.1177C7.98596 13.003 8.08895 13.4228 8.43617 13.6803C9.4903 14.4637 10.7762 14.6587 10.7762 16.3394C10.7762 16.9137 10.379 18.0575 9.64323 17.9397C9.01512 17.8391 9.65961 16.9777 9.68302 16.6507C9.74466 15.7956 8.7904 15.5201 8.19507 15.208H8.19585Z" fill="#101F3C"/>
<path d="M8.19585 7.01531V10.7996C8.19585 11.1382 7.72613 11.7304 7.4546 11.9309C6.42544 12.6901 4.63942 12.3687 4.67922 10.8768C4.71043 9.71735 5.95338 9.31629 6.94743 9.35687C7.08163 9.22422 6.87487 6.13908 6.95445 5.57963C6.98644 5.35492 7.16356 4.99366 7.39218 4.92577C7.94148 4.76192 8.10846 5.24724 8.4822 5.52033C9.3241 6.13518 10.354 6.28577 10.6693 7.46864C10.8456 8.12952 10.7075 9.62918 9.86716 9.74466C8.92305 9.87496 9.64167 8.79352 9.67444 8.45021C9.74856 7.68555 8.80523 7.21896 8.19585 7.01609V7.01531Z" fill="#101F3C"/>
<path d="M12.9351 16.6312L22.7672 16.6718C23.4608 17.0479 23.2712 17.9046 22.5159 18.0193L13.0732 18.0177C12.1908 18.0021 12.0651 16.7881 12.9359 16.632L12.9351 16.6312Z" fill="#101F3C"/>
<path d="M12.9344 6.40906L22.7531 6.46368C23.4406 6.79451 23.2814 7.70741 22.5152 7.79714L12.7416 7.73628C12.1206 7.3758 12.2594 6.59398 12.9344 6.40906Z" fill="#101F3C"/>
<path d="M12.5122 12.687C12.1307 12.2688 12.4303 11.5759 12.9929 11.5392H22.5932C23.3992 11.6134 23.3836 12.804 22.5932 12.8688C19.5112 12.6457 16.0234 13.1591 12.9898 12.8727C12.8197 12.8563 12.634 12.8197 12.5122 12.687Z" fill="#101F3C"/>
</g>
<defs>
<clipPath id="clip0_15360_1323">
<rect width="24" height="20.4795" fill="white"/>
</clipPath>
</defs>
</svg>
