<svg width="32" height="32" viewBox="0 0 32 32" fill="none" xmlns="http://www.w3.org/2000/svg">
<g clip-path="url(#clip0_12450_1872)">
<path d="M32 27.3333C32 27.3333 32 27.3373 32 27.3387C32 29.18 30.508 30.672 28.6667 30.672C26.8253 30.672 25.3333 29.18 25.3333 27.3387C25.3333 25.4973 26.8253 24.0053 28.6667 24.0053C28.8947 24.0053 29.1173 24.0293 29.3333 24.072V18.8493C29.3333 18.4573 29.1693 18.1 28.8733 17.8427C28.576 17.5853 28.2013 17.476 27.8107 17.5293L24.384 18.0187C23.4053 18.1587 22.6667 19.0107 22.6667 19.9987V28.6707C22.6667 30.512 21.1747 32.004 19.3333 32.004C17.492 32.004 16 30.512 16 28.6707C16 26.8293 17.492 25.3373 19.3333 25.3373C19.5613 25.3373 19.784 25.3613 20 25.404V19.9987C20 17.692 21.7227 15.7053 24.0067 15.3787L27.4347 14.8893C28.5827 14.7227 29.744 15.0667 30.6213 15.828C31.4973 16.588 32 17.6893 32 18.8493V27.3333ZM10.6667 16C15.0787 16 18.6667 12.412 18.6667 8C18.6667 3.588 15.0787 0 10.6667 0C6.25467 0 2.66667 3.588 2.66667 8C2.66667 12.412 6.25467 16 10.6667 16ZM17.3333 23.0147V20C17.3333 19.9787 17.3387 19.9573 17.3387 19.936C15.728 19.1307 13.9187 18.6667 12 18.6667C5.384 18.6667 0 24.0507 0 30.6667C0 31.4027 0.597333 32 1.33333 32H14.3467C13.708 31.0467 13.3333 29.9027 13.3333 28.672C13.3333 26.064 15.0053 23.84 17.3333 23.0147Z" fill="#2680EB"/>
<g clip-path="url(#clip1_12450_1872)">
<path d="M27.9737 0H26.4537C26.1996 0 25.9937 0.205949 25.9937 0.46V9.3C25.9937 9.55405 26.1996 9.76 26.4537 9.76H27.9737C28.2277 9.76 28.4337 9.55405 28.4337 9.3V0.46C28.4337 0.205949 28.2277 0 27.9737 0Z" fill="#2680EB"/>
<path d="M31.3468 3.66016H23.0802C22.6678 3.66016 22.3335 3.99445 22.3335 4.40682V5.35349C22.3335 5.76586 22.6678 6.10016 23.0802 6.10016H31.3468C31.7592 6.10016 32.0935 5.76586 32.0935 5.35349V4.40682C32.0935 3.99445 31.7592 3.66016 31.3468 3.66016Z" fill="#2680EB"/>
</g>
</g>
<defs>
<clipPath id="clip0_12450_1872">
<rect width="32" height="32" fill="white"/>
</clipPath>
<clipPath id="clip1_12450_1872">
<rect width="9.76" height="9.76" fill="white" transform="translate(22.3335)"/>
</clipPath>
</defs>
</svg>
